<?xml version="1.0" encoding="UTF-8" standalone="no"?>
<svg
   xmlns:dc="http://purl.org/dc/elements/1.1/"
   xmlns:cc="http://creativecommons.org/ns#"
   xmlns:rdf="http://www.w3.org/1999/02/22-rdf-syntax-ns#"
   xmlns:svg="http://www.w3.org/2000/svg"
   xmlns="http://www.w3.org/2000/svg"
   xmlns:sodipodi="http://sodipodi.sourceforge.net/DTD/sodipodi-0.dtd"
   xmlns:inkscape="http://www.inkscape.org/namespaces/inkscape"
   fill="none"
   stroke-linecap="square"
   stroke-miterlimit="10"
   viewBox="0 0 348 348"
   id="svg2"
   version="1.1"
   inkscape:version="0.91 r13725"
   sodipodi:docname="Simon Squawks.svg">
  <metadata
     id="metadata56">
    <rdf:RDF>
      <cc:Work
         rdf:about="">
        <dc:format>image/svg+xml</dc:format>
        <dc:type
           rdf:resource="http://purl.org/dc/dcmitype/StillImage" />
      </cc:Work>
    </rdf:RDF>
  </metadata>
  <defs
     id="defs54" />
  <sodipodi:namedview
     pagecolor="#ffffff"
     bordercolor="#666666"
     borderopacity="1"
     objecttolerance="10"
     gridtolerance="10"
     guidetolerance="10"
     inkscape:pageopacity="0"
     inkscape:pageshadow="2"
     inkscape:window-width="1440"
     inkscape:window-height="785"
     id="namedview52"
     showgrid="false"
     inkscape:zoom="0.67816092"
     inkscape:cx="-39.813559"
     inkscape:cy="173.26271"
     inkscape:window-x="0"
     inkscape:window-y="1"
     inkscape:window-maximized="1"
     inkscape:current-layer="svg2" />
  <path
     stroke="#000"
     stroke-linecap="butt"
     stroke-linejoin="round"
     stroke-width="2"
     d="M5.5 5.2h337v337.6H5.5z"
     id="path4" />
  <path
     fill="#000"
     d="M134.3 15h74.3v57h-74.3z"
     id="path6" />
  <path
     fill="#fff"
     d="M155 43.5c0-2.7.3-5 .8-6.6a8.7 8.7 0 0 1 2.5-3.8 6.4 6.4 0 0 1 4.2-1.3c1.2 0 2.3.2 3.2.7 1 .5 1.7 1.2 2.3 2.2.6.9 1 2 1.4 3.4.4 1.3.5 3.1.5 5.4a21 21 0 0 1-.8 6.5c-.5 1.6-1.4 3-2.5 3.8-1 1-2.5 1.4-4.1 1.4-2.2 0-4-.8-5.2-2.4-1.5-2-2.3-5-2.3-9.3zm2.9 0c0 3.7.4 6.2 1.3 7.5.9 1.2 2 1.9 3.3 1.9 1.3 0 2.3-.7 3.2-2 1-1.2 1.4-3.7 1.4-7.4 0-3.8-.5-6.3-1.4-7.5-.9-1.3-2-1.9-3.3-1.9-1.3 0-2.3.5-3 1.6-1 1.4-1.5 4-1.5 7.8zm14.9 0c0-2.7.3-5 .8-6.6a8.7 8.7 0 0 1 2.5-3.8 6.4 6.4 0 0 1 4.2-1.3c1.2 0 2.3.2 3.2.7 1 .5 1.7 1.2 2.3 2.2.6.9 1 2 1.4 3.4.4 1.3.5 3.1.5 5.4 0 2.7-.2 4.8-.8 6.5-.5 1.6-1.4 3-2.5 3.8-1 1-2.5 1.4-4.1 1.4-2.2 0-4-.8-5.2-2.4-1.5-2-2.3-5-2.3-9.3zm2.9 0c0 3.7.4 6.2 1.3 7.5.9 1.2 2 1.9 3.3 1.9 1.3 0 2.3-.7 3.2-2 .9-1.2 1.3-3.7 1.3-7.4 0-3.8-.4-6.3-1.3-7.5-.9-1.3-2-1.9-3.3-1.9-1.3 0-2.3.5-3 1.6-1 1.4-1.5 4-1.5 7.8z"
     id="path8" />
  <path
     stroke="#000"
     stroke-linecap="butt"
     stroke-linejoin="round"
     stroke-width="2"
     d="M15.7 17h110v55h-110z"
     id="path10" />
  <path
     d="M15.7 72l39.7-54"
     id="path12" />
  <path
     stroke="#000"
     stroke-linecap="butt"
     stroke-linejoin="round"
     stroke-width="2"
     d="M15.7 72l39.7-54"
     id="path14" />
  <path
     d="M38 72l39.7-54"
     id="path16" />
  <path
     stroke="#000"
     stroke-linecap="butt"
     stroke-linejoin="round"
     stroke-width="2"
     d="M38 72l39.7-54"
     id="path18" />
  <path
     d="M60.3 72L100 18"
     id="path20" />
  <path
     stroke="#000"
     stroke-linecap="butt"
     stroke-linejoin="round"
     stroke-width="2"
     d="M60.3 72L100 18"
     id="path22" />
  <path
     d="M82.6 72l39.7-54"
     id="path24" />
  <path
     stroke="#000"
     stroke-linecap="butt"
     stroke-linejoin="round"
     stroke-width="2"
     d="M82.6 72l39.7-54m95-2h110v55h-110z"
     id="path26" />
  <path
     d="M217.3 71L257 16.9"
     id="path28" />
  <path
     stroke="#000"
     stroke-linecap="butt"
     stroke-linejoin="round"
     stroke-width="2"
     d="M217.3 71L257 16.9"
     id="path30" />
  <path
     d="M239.6 71l39.7-54.1"
     id="path32" />
  <path
     stroke="#000"
     stroke-linecap="butt"
     stroke-linejoin="round"
     stroke-width="2"
     d="M239.6 71l39.7-54.1"
     id="path34" />
  <path
     d="M262 71l39.6-54.1"
     id="path36" />
  <path
     stroke="#000"
     stroke-linecap="butt"
     stroke-linejoin="round"
     stroke-width="2"
     d="M262 71l39.6-54.1"
     id="path38" />
  <path
     d="M284.2 71L324 16.9"
     id="path40" />
  <path
     stroke="#000"
     stroke-linecap="butt"
     stroke-linejoin="round"
     stroke-width="2"
     d="M284.2 71L324 16.9"
     id="path42" />
  <rect
     style="fill:none;fill-rule:evenodd;stroke:#000000;stroke-width:2.25840425;stroke-linecap:butt;stroke-linejoin:miter;stroke-miterlimit:10;stroke-dasharray:none;stroke-opacity:1"
     id="rect4184"
     width="29.790403"
     height="87.093353"
     x="159.2065"
     y="95.800789" />
  <rect
     y="95.800789"
     x="101.30926"
     height="87.093353"
     width="29.790403"
     id="rect4222"
     style="fill:none;fill-rule:evenodd;stroke:#000000;stroke-width:2.25840425;stroke-linecap:butt;stroke-linejoin:miter;stroke-miterlimit:10;stroke-dasharray:none;stroke-opacity:1" />
  <rect
     y="95.800789"
     x="217.10373"
     height="87.093353"
     width="29.790403"
     id="rect4224"
     style="fill:none;fill-rule:evenodd;stroke:#000000;stroke-width:2.25840425;stroke-linecap:butt;stroke-linejoin:miter;stroke-miterlimit:10;stroke-dasharray:none;stroke-opacity:1" />
  <rect
     y="229.80078"
     x="159.2065"
     height="87.093353"
     width="29.790403"
     id="rect4226"
     style="fill:none;fill-rule:evenodd;stroke:#000000;stroke-width:2.25840425;stroke-linecap:butt;stroke-linejoin:miter;stroke-miterlimit:10;stroke-dasharray:none;stroke-opacity:1" />
  <rect
     style="fill:none;fill-rule:evenodd;stroke:#000000;stroke-width:2.25840425;stroke-linecap:butt;stroke-linejoin:miter;stroke-miterlimit:10;stroke-dasharray:none;stroke-opacity:1"
     id="rect4228"
     width="29.790403"
     height="87.093353"
     x="101.30926"
     y="229.80078" />
  <rect
     style="fill:none;fill-rule:evenodd;stroke:#000000;stroke-width:2.25840425;stroke-linecap:butt;stroke-linejoin:miter;stroke-miterlimit:10;stroke-dasharray:none;stroke-opacity:1"
     id="rect4230"
     width="29.790403"
     height="87.093353"
     x="217.10373"
     y="229.80078" />
  <rect
     y="-335.47778"
     x="192.09634"
     height="87.093353"
     width="29.790403"
     id="rect4232"
     style="fill:none;fill-rule:evenodd;stroke:#000000;stroke-width:2.25840425;stroke-linecap:butt;stroke-linejoin:miter;stroke-miterlimit:10;stroke-dasharray:none;stroke-opacity:1"
     transform="matrix(0,1,-1,0,0,0)" />
  <rect
     transform="matrix(0,1,-1,0,0,0)"
     style="fill:none;fill-rule:evenodd;stroke:#000000;stroke-width:2.25840425;stroke-linecap:butt;stroke-linejoin:miter;stroke-miterlimit:10;stroke-dasharray:none;stroke-opacity:1"
     id="rect4234"
     width="29.790403"
     height="87.093353"
     x="192.09634"
     y="-97.545578" />
  <g
     style="font-style:normal;font-weight:normal;font-size:40px;line-height:125%;font-family:sans-serif;letter-spacing:0px;word-spacing:0px;fill:#000000;fill-opacity:1;stroke:none;stroke-width:1px;stroke-linecap:butt;stroke-linejoin:miter;stroke-opacity:1"
     id="text4236">
    <path
       d="m 105.6488,199.21191 q 0.0952,-4.80835 4.74488,-7.2998 l 3.09448,-0.99976 q 4.69726,-1.22192 7.5061,1.50757 l 0.11109,0.36499 q -0.12696,0.25391 -0.36499,0.60303 l -0.15869,0.30151 q -0.11109,0.14283 -0.26978,0.46021 -0.19043,0.2063 -0.34912,0.52368 l -0.57129,0.96802 q -0.30151,0.50781 -0.58716,0.90454 l -0.0635,0.12695 -0.8728,-0.12695 -0.15869,0 q -0.28564,-0.0635 -0.69824,-0.0793 -0.0635,-0.0317 -0.44434,-0.0635 -0.36499,-0.0476 -0.61889,-0.0159 l -0.17456,-0.0476 -0.2063,0.0159 -1.52344,0.0793 -0.34912,0.0635 q -1.47583,0.58716 -2.22168,2.12647 -0.50781,3.07861 4.88769,4.95117 0.26978,0.17456 0.68238,0.34912 l 0.19043,0.0952 0.11108,0.0159 0.68237,0.34912 0.17456,0.0476 0.36499,0.19043 q 7.14112,3.91968 3.55469,10.94971 -1.65039,2.5708 -4.91943,3.52295 -4.50684,1.50757 -9.75952,-0.77759 -0.19043,-0.0952 -0.31739,-0.31738 l 0.19043,-0.84107 0.0635,-0.26977 0.0159,-0.15869 0.14282,-0.52369 0,-0.14282 0.2063,-0.80932 0,-0.14283 q 0.12695,-0.2539 0.14282,-0.68237 l 0.30152,-1.2854 q 5.90332,4.57031 10.64819,-0.96802 0.26977,-0.4602 0.38086,-1.06323 l 0.0159,-0.11108 q -0.23804,-1.22193 -1.39649,-1.92017 -0.52368,-0.30151 -1.34887,-0.6189 l -0.69825,-0.23803 -0.28564,-0.11109 q -6.90308,-0.60303 -9.42627,-7.26806 -0.23804,-0.55542 -0.36499,-1.4441 l -0.0635,-0.19043 0,0 z"
       style="font-style:normal;font-variant:normal;font-weight:normal;font-stretch:normal;font-size:32.5px;font-family:Grinched;-inkscape-font-specification:Grinched"
       id="path4241" />
    <path
       d="m 131.11877,189.5 1.92017,0 0.28564,0.0476 0.25391,0.0476 0.6189,0.19043 1.63452,0.87281 0.0952,0.0952 0.30152,0.19043 0.28564,0.23804 1.11084,1.15845 0.23804,0.28564 q 5.04639,7.56958 2.20581,17.20215 l 0.44434,0.23804 q 0.19043,0.0476 0.42846,0.19043 l 0.47608,0.19043 0.14282,0.0952 0.49194,0.19043 q 0.0476,0.0476 0.19043,0.0952 l 0.77759,0.39673 q 0.28564,0.0952 0.6189,0.28565 0,0.19043 -0.19043,0.42846 l -0.28565,0.44434 q -0.0952,0.19043 -0.34912,0.52368 -0.14282,0.28565 -0.42847,0.66651 l -0.14282,0.2539 -0.23804,0.38086 -0.49194,0.71411 -0.0476,0.0952 -0.61889,0.96802 -0.0476,0.0952 -0.19043,0.28565 -0.14282,0.20629 -0.14282,0.23804 -0.1587,0.19043 -0.28564,0.47607 -0.14282,0.23804 -0.19043,0 -2.03125,-2.1582 -0.0476,-0.0952 -0.38086,-0.39672 q -3.45947,3.71337 -8.09326,1.45996 -4.76074,-3.23731 -5.68115,-10.26734 0,-0.38086 -0.0952,-0.8728 l 0,-3.79272 q 0.0476,-0.2063 0.0476,-0.49195 0.0476,-0.38086 0.0952,-0.6665 l 0,-0.19043 q 0.0952,-0.25391 0.0952,-0.53955 l 0.0476,-0.19043 0.14282,-0.76172 0.14282,-0.49194 0,-0.14283 0.15869,-0.38086 0,-0.14282 0.99976,-2.65014 0.34912,-0.58716 0.0952,-0.23804 0.42847,-0.6665 0.14282,-0.25391 0.0952,-0.0952 0.23804,-0.33325 q 0.23803,-0.28564 0.39672,-0.52368 0.23804,-0.19043 0.52369,-0.58716 l 0.19043,-0.19043 1.34887,-1.06323 0.47608,-0.23804 0.53955,-0.23803 0.33325,-0.14283 1.01562,-0.28564 z m 1.72974,8.3313 q -0.52368,-0.28565 -1.15845,-0.33325 -0.85693,0.19043 -1.58691,0.99975 -1.82495,3.04688 -1.44409,6.98242 0.0476,3.04688 1.82495,5.88746 0.44433,0.52368 1.20605,1.01562 l 0.0952,0.0476 q 0.8728,0.23804 1.7456,-0.30152 l 0.47608,-0.47607 q -0.38086,-0.28564 -0.8252,-0.8252 l -0.76172,-0.80932 q 0.0476,-0.33325 0.23804,-0.72998 l 0.6189,-1.63452 q 0.0476,-0.14283 0.2063,-0.38086 l 0.14282,-0.38086 q 0.42847,0.23804 1.20605,0.52368 0.0476,0.0476 0.19043,0.0952 0.0476,0.0476 0.19043,0.0952 l 0.28565,0.14282 q 0,-0.33325 0.0952,-0.71411 l 0,-0.68237 0.0476,-0.14282 0,-1.15845 q -0.0476,-3.41187 -1.92017,-6.41114 l -0.68237,-0.6665 -0.19043,-0.14282 z"
       style="font-style:normal;font-variant:normal;font-weight:normal;font-stretch:normal;font-size:32.5px;font-family:Grinched;-inkscape-font-specification:Grinched"
       id="path4243" />
    <path
       d="m 144.03625,191.15039 1.52344,0.12695 0.30152,0.0476 0.36499,0.0476 0.26977,0 0.0794,0.0476 0.50781,0.0476 0.17456,0.0476 0.6189,0.0317 -0.0476,1.0791 -0.0317,0.14282 -0.0476,0.76172 q 0.0476,0.17456 -0.0476,0.44434 l -0.0476,1.38061 -0.0476,0.14283 0,0.61889 -0.0317,0.36499 -0.0476,7.37915 0.0476,0.0952 0,0.63476 0.0317,0.17456 0,0.39673 0.0476,0.4126 0.0476,0.44434 0.0476,0.49194 0.0476,0.31738 0.0317,0.30152 q 0.0476,0.0476 0.0476,0.31738 l 0.0476,0.17456 0.14283,0.72998 0.0317,0.0793 0,0.19043 0.23804,0.71412 0,0.12695 0.0794,0.17456 0.14282,0.50781 0.0793,0.12696 q 0.14282,0.31738 0.22216,0.53955 l 0.4126,0.6665 q 0.88867,0.93628 2.3645,0.80933 1.0315,-0.22217 1.74561,-1.12671 0.36499,-0.49195 0.68237,-1.2854 0.12695,-0.31739 0.22217,-0.49195 l 0.39673,-1.4917 q 0.0952,-0.26977 0.19043,-0.76171 l 0.0317,-0.17457 0.0952,-0.49194 q 0.0476,-0.31738 0.0635,-0.49194 0.0317,-0.17456 0.0635,-0.49195 l 0.0476,-0.31738 0.0476,-0.17456 0,-0.26977 0.0952,-0.58716 q 0,-0.22217 0.0476,-0.30152 l 0,-0.19043 0.0794,-0.98388 q 0,-0.22217 0.0476,-0.57129 l 0,-0.50781 q 0.0476,-0.30152 0.0476,-0.71412 0,-0.30151 0.0476,-0.76171 l 0,-5.094 -0.0476,-0.19043 -0.0476,-1.79321 -0.0476,-0.17456 0.80932,0.0476 q 0.44434,0.0476 0.71411,0.0952 l 0.17457,0.0317 2.01538,0.19043 0.26977,0.0476 1.12671,0.12695 0.31738,0 0.30152,0.0476 0.23803,0.12695 0,1.61865 -0.0476,0.49195 q 0.0476,0.26977 -0.0476,0.61889 0.0476,0.31738 -0.0476,0.72998 0.0476,0.26978 -0.0476,0.57129 l -0.0476,0.49195 -0.0793,1.34887 -0.0476,0.26978 -0.0476,0.22217 -0.0794,0.90454 -0.0476,0.2539 -0.0476,0.26978 -0.0476,0.31738 0,0.14282 -0.0952,0.34912 0,0.22217 -0.17456,0.90454 -0.0476,0.22217 -0.0317,0.31738 -0.0476,0.26978 q -0.0476,0.0317 -0.0794,0.14282 -0.0159,0.11109 -0.0159,0.25391 -0.0476,0.26977 -0.17456,0.61889 l -0.0476,0.26978 -0.0476,0.19043 -0.34912,1.25366 0,0.12695 q -0.14282,0.31739 -0.23804,0.71412 l -0.88867,2.28515 -0.12695,0.31739 -0.26978,0.49194 -0.0476,0.12695 -0.76172,1.25366 q -0.0952,0.19043 -0.31738,0.46021 l -0.44433,0.57129 -0.14283,0.19043 -0.88867,0.88867 -0.22217,0.17456 -0.22216,0.19043 -0.22217,0.17456 -1.0315,0.58716 -0.36499,0.12695 -0.12695,0.0952 q -1.4917,0.44433 -3.26904,0.17456 -1.52344,-0.34912 -2.91992,-1.47583 l -0.0793,-0.0476 -1.03149,-1.11084 -0.19043,-0.26978 -0.12696,-0.19043 q -0.22217,-0.26977 -0.49194,-0.76171 l -0.31738,-0.6189 q -0.0476,-0.14282 -0.17456,-0.36499 l -0.14283,-0.30151 -0.12695,-0.36499 -0.14282,-0.44434 q -0.12695,-0.31738 -0.22217,-0.71411 l -0.0794,-0.19043 -0.0952,-0.30152 -0.0476,-0.31738 -0.26977,-1.12671 -0.0476,-0.26977 -0.22217,-1.52344 -0.0476,-0.34912 q 0,-0.22217 -0.0317,-0.36499 l -0.0476,-1.0315 q -0.0476,-0.0476 -0.0476,-0.17456 l 0,-5.33203 0.0476,-0.0793 q -0.0476,-0.31739 0.0476,-0.72998 -0.0476,-0.26978 0.0317,-0.57129 l 0,-0.4126 0.0476,-0.30151 q 0.0476,-0.68238 0.14282,-1.12671 0,-0.36499 0.0794,-0.88867 l 0,-0.14283 q 0.0952,-0.34912 0.14282,-0.88867 0.0476,-0.22217 0.0476,-0.4602 l 0.12695,-0.6189 0.0476,-0.39673 0.0476,-0.26977 0.0476,-0.0952 z"
       style="font-style:normal;font-variant:normal;font-weight:normal;font-stretch:normal;font-size:32.5px;font-family:Grinched;-inkscape-font-specification:Grinched"
       id="path4245" />
    <path
       d="m 167.71301,191.18213 q 0.15869,0.19043 0.33325,0.55542 l 0.0635,0.0952 0.96802,2.12647 0.17456,0.38086 0.17456,0.31738 0.17456,0.42847 q 0.0635,0.23803 0.26978,0.55542 l 0.19043,0.47607 0.15869,0.28565 0.63476,1.45996 0.11109,0.19043 q 0.17456,0.33325 0.23803,0.52368 l 0.68238,1.4917 q 0.11108,0.14282 0.17456,0.38086 l 0.22217,0.52368 0.17456,0.33325 2.12646,4.60205 0.15869,0.33325 1.09497,2.39624 q 0.0635,0.14283 0.22217,0.38086 l 0.17456,0.47608 0.11109,0.17456 0.0635,0.19043 q 0.0476,0.0476 0.11109,0.19043 l 1.03149,2.26928 0.11108,0.17456 0.0635,0.19043 0.57129,1.17432 0.0635,0.19043 0.15869,0.33325 q 0.17456,0.33325 0.23803,0.57129 l 0.11109,0.14282 0.11108,0.26978 q 0.0635,0.14282 0.0794,0.39673 l -0.71411,0.23803 q -0.33326,0.0635 -0.80933,0.25391 l -0.14282,0.0476 -0.52368,0.14282 q -0.0476,0.0476 -0.19043,0.0635 l -0.99976,0.34912 -0.23804,0.0793 -0.23803,0.0635 -0.95215,0.30151 -0.46021,0.17456 -0.34912,0.0317 -0.44433,-0.88867 q -0.15869,-0.23804 -0.17456,-0.33325 l -0.0952,-0.14282 -0.23804,-0.46021 -0.11108,-0.14282 -0.11108,-0.28564 -0.44434,-0.79346 -4.49097,0.31738 q -0.2063,0.55542 -0.2539,1.33301 l -0.0317,0.14282 -0.0952,0.68237 q -0.0317,0.34913 -0.14282,0.84107 l -0.0317,0.19043 -0.92041,0.0635 -0.0952,-0.0317 -0.44434,0.0317 -0.72998,0 q -0.42846,-0.0159 -0.72998,-0.0476 l -1.698,0.0159 q -0.0317,-0.42847 0.12696,-0.96802 l 0.36499,-1.72974 0.0793,-0.34912 0.0317,-0.19043 0.25391,-1.23779 0.0317,-0.19043 0.2539,-1.23779 q 0.12695,-0.34912 0.17456,-0.88868 l 0.0793,-0.34912 0.0793,-0.19043 0,-0.15869 0.0635,-0.28564 0.12695,-0.44434 0.0317,-0.2539 0.8252,-3.98316 0.11108,-0.55542 0.69824,-3.25317 0.0317,-0.19043 0.0794,-0.30152 0.0317,-0.19043 q 0.0317,-0.30151 0.15869,-0.69824 l 0.31738,-1.57104 0.0317,-0.2063 0.33325,-1.57105 0.11108,-0.53955 0.72998,-3.36426 0,-0.14282 0.0794,-0.19043 0.31738,-1.58691 z m 1.19019,12.17163 -0.0159,0.42847 -0.11108,0.53955 0.0159,0.14282 -0.0793,0.30151 -0.11109,1.0791 q -0.0317,0.23804 -0.0793,0.34913 l 0.0159,0.19043 -0.19043,1.333 -0.0317,0.23804 q -0.11108,0.53955 -0.14282,0.93628 l -0.0952,0.53955 -0.0317,0.28565 -0.0317,0.30151 0.72998,0.0952 0.72998,0 q 0.15869,0.0317 0.39673,0.0159 l 0.49194,0.0635 q 0.23804,-0.0159 0.33325,0.0317 l 0.14282,-0.0635 q -0.0635,-0.33325 -0.23803,-0.76172 l -0.0794,-0.28564 -0.12695,-0.57129 q -0.12696,-0.33325 -0.2063,-0.76172 l -0.0635,-0.23804 -0.2539,-0.80932 -0.0635,-0.19043 -0.14282,-0.68238 -0.0476,-0.12695 -0.58716,-2.11059 -0.0159,-0.14283 -0.11108,-0.12695 z"
       style="font-style:normal;font-variant:normal;font-weight:normal;font-stretch:normal;font-size:32.5px;font-family:Grinched;-inkscape-font-specification:Grinched"
       id="path4247" />
    <path
       d="m 199.0863,189.54761 q 0.96802,-0.2063 0.90454,0.23803 -0.12695,0.34913 -0.17456,0.88868 l -0.0793,0.34912 -0.0794,0.34912 -0.0635,0.34912 -0.0317,0.25391 -0.0793,0.34912 -0.0793,0.34912 -0.0317,0.19043 -0.0794,0.30151 -0.0317,0.30152 -0.17456,0.79345 -0.11108,0.65064 q -0.11108,0.39673 -0.22217,1.09497 -0.0793,0.2539 -0.0635,0.34912 l -0.12696,0.44433 -0.0317,0.2063 -0.17456,0.88868 -0.0317,0.30151 -0.11108,0.49194 q -0.0317,0.25391 -0.15869,0.65064 l 0.0159,0.15869 -0.0794,0.28564 -0.0793,0.34912 -0.0317,0.2063 -0.11108,0.44434 q -0.0317,0.34912 -0.14283,0.74585 l -0.53955,2.88818 -0.0793,0.25391 -0.11109,0.49194 -0.11108,0.60303 -0.0317,0.23804 q -0.19043,0.80932 -0.28564,1.4917 -0.11109,0.41259 -0.22217,1.09497 -0.0794,0.2539 -0.0635,0.34912 l -0.0793,0.2539 0,0.15869 q -0.11109,0.34913 -0.17457,0.84107 -0.20629,0.74585 -0.2539,1.2854 l -0.0794,0.34912 -0.0793,0.34912 -0.0317,0.2063 -0.25391,1.2854 -0.11108,0.55542 -0.0794,0.25391 -0.11108,0.53955 -0.0159,0.34912 q -0.12695,0.34912 -0.19043,0.84106 l -0.0317,0.25391 -0.14282,0.69824 q -0.31738,-0.36499 -0.50781,-0.90454 -0.15869,-0.22217 -0.57129,-1.22192 -0.11109,-0.14283 -0.17456,-0.38086 -0.33325,-0.57129 -0.69824,-1.47583 l -1.4917,-3.1897 q -0.34913,-0.6189 -0.52369,-1.14258 l -1.03149,-2.12646 -0.0635,-0.19043 -0.22216,-0.42847 -0.0635,-0.19043 q -0.0635,-0.0476 -0.11108,-0.19043 l -0.4126,-0.85693 q -0.77759,-1.96778 -0.74585,-0.84107 l -0.36499,1.11084 -0.0317,0.2063 -0.76172,2.39624 -0.0317,0.2063 -0.49194,1.55518 -0.12695,0.30151 -0.58716,2.04712 q -0.17456,0.36499 -0.28565,0.90454 l -1.0791,3.52295 -0.11108,0.34912 q -0.26978,-0.33325 -0.4126,-0.85693 l -0.0476,-0.0952 -0.30151,-0.76172 -0.11109,-0.19043 -0.34912,-0.85693 -0.12695,-0.33325 -0.0635,-0.19043 -0.58715,-1.39649 -0.0635,-0.19042 -2.25342,-5.52247 -0.0476,-0.0952 -0.30151,-0.77759 q -0.11108,-0.17456 -0.12695,-0.28564 l -0.57129,-1.33301 -0.0635,-0.19043 -0.0635,-0.19043 -0.6665,-1.61865 -0.11108,-0.19043 -0.17456,-0.42847 -0.0635,-0.23804 -1.23779,-2.95166 q -0.0635,-0.2539 -0.23804,-0.52368 l -0.17456,-0.53955 -0.17456,-0.38086 -0.23804,-0.6665 q -0.12695,-0.23804 -0.14282,-0.47608 l 5.91919,-0.41259 q 0.17456,0.38086 0.30151,0.90454 l 0.12696,0.28564 0.0635,0.19043 0.11109,0.28565 q 0.0635,0.23803 0.0793,0.34912 0.22217,0.52368 0.30152,0.90454 l 0.11108,0.23804 0.0635,0.19042 q 0.12695,0.28565 0.31738,1.01563 0.0635,0.23804 0.23804,0.6189 l 0.0635,0.23803 0.12696,0.33326 0.0635,0.23803 0.12696,0.33325 0.0635,0.30152 q 0.17456,0.33325 0.31738,0.85693 l 0.0476,0.0952 0.53955,-1.45996 0.12696,-0.30152 0.23803,-0.76172 0.12696,-0.34912 0.69824,-1.80908 q 0.12695,-0.36499 0.19043,-0.50781 0.0635,-0.15869 0.0952,-0.33325 0.0476,-0.17457 0.17456,-0.42847 l 0.23804,-0.74585 0.17456,-0.36499 0.11109,-0.39673 0.12695,-0.34912 0.30151,-0.71411 0.11109,-0.39673 0.12695,-0.34912 q 0.11108,-0.44434 0.42847,-0.8728 l 1.333,2.90405 0.1587,0.28564 2.01538,4.28467 0.17456,0.31738 0.52368,1.09497 0.17456,0.38086 0.23804,0.57129 q 0.0476,0.14283 0.22216,0.38086 l 0.39673,0.90454 0.0635,0.0952 0.17456,0.33325 0.11108,-1.23779 0.0635,-0.34912 0.0317,-0.30152 0.0317,-0.33325 0.0159,-0.39673 q 0.0476,-0.0476 0.0317,-0.2063 0.0794,-0.34912 0.0952,-0.84106 l 0.12695,-0.98389 q 0.0952,-0.69824 0.11109,-1.14258 l 0.0635,-0.44433 0.0317,-0.34912 0.12695,-0.98389 0.0159,-0.34912 0.31739,-2.66602 0.0635,-0.34912 0.0317,-0.30151 -0.0159,-0.19043 q 0.0476,-0.0476 0.0635,-0.19043 0.0159,-0.15869 0,-0.34912 l 0.12695,-0.90454 0,-0.14283 0.0635,-0.39672 q 0.39673,0.0159 0.96802,-0.1587 l 0.49194,-0.0476 0.52368,-0.12696 0.44434,-0.0317 0.28564,-0.0635 1.26953,-0.19043 0.28565,-0.0635 0.23803,-0.0793 z"
       style="font-style:normal;font-variant:normal;font-weight:normal;font-stretch:normal;font-size:32.5px;font-family:Grinched;-inkscape-font-specification:Grinched"
       id="path4249" />
    <path
       d="m 213.70178,189.18262 0.11109,0 0.49194,1.26953 0.0476,0.19043 1.57104,4.3164 q 0.11109,0.2063 0.11109,0.30152 l 0.44433,1.11084 0,0.36499 -0.65063,0.80932 q -0.11109,0.0476 -0.28565,0.30152 l -0.74585,0.96802 -0.17456,0.20629 -0.15869,0.19043 q -0.31738,0.30152 -0.76172,0.92041 l -0.53955,0.65064 q -0.26977,0.36499 -0.42847,0.50781 l -0.8728,1.12671 q -0.0476,0.0476 -0.15869,0.19043 l -2.06299,2.63428 q 0.2063,0.2063 0.49195,0.57129 l 0.42846,0.44433 0.0476,0.11109 q 0.17456,0.14282 0.44434,0.50781 0.47607,0.44433 0.69824,0.80933 l 0.26977,0.30151 0.22217,0.2063 q 0.22217,0.2539 0.31738,0.39673 0.22217,0.20629 0.44434,0.50781 l 0.2063,0.2063 0.55542,0.6665 0.47607,0.55542 0.26978,0.30151 0.11108,0.0952 q 0.26978,0.25391 0.65064,0.76172 0.22217,0.2539 0.38086,0.4126 -0.2063,0.44433 -0.69825,1.01562 l -0.11108,0.0952 -0.15869,0.2539 q -0.0635,0.0476 -0.26978,0.30152 l -1.03149,1.31713 -0.26978,0.36499 -0.17456,0.19043 -0.2063,0.1587 q -0.22216,-0.25391 -0.49194,-0.71412 l -0.26977,-0.34912 -0.26978,-0.41259 q -0.11108,-0.2063 -0.38086,-0.55542 l -0.11108,-0.2063 -0.71411,-1.01563 -0.0476,-0.0952 -1.57105,-2.28516 -0.11108,-0.0952 -0.26978,-0.4126 -0.60302,-0.85694 -0.15869,-0.30151 -0.26978,-0.34912 q -0.15869,0.60303 -0.0476,1.41235 l 0,0.71412 q 0.0476,0.14282 0.0476,0.39672 l 0.0476,1.98365 q 0.0635,0.30151 0.0635,0.71411 l 0.0476,1.11084 q -0.0476,0.30151 0.0635,0.65063 l 0.0476,2.07886 -1.14258,0.6189 -0.11109,0.0952 -1.30127,0.71411 -0.26977,0.2063 -0.15869,0.0476 -0.80933,0.50781 -0.26977,0 -0.17457,-1.12671 -0.0952,-0.34912 -0.0635,-0.30151 -0.0476,-0.30152 q -0.0635,-0.55542 -0.1587,-0.96801 -0.0635,-0.50782 -0.17456,-0.80933 l -0.0476,-0.4126 -0.0635,-0.39673 q -0.15869,-0.6665 -0.2063,-1.17431 l -0.0635,-0.30152 -0.15869,-0.76172 q 0,-0.2539 -0.11108,-0.55542 l -0.0476,-0.39672 q -0.0635,-0.4126 -0.0952,-0.58716 -0.0159,-0.17456 -0.0635,-0.38086 l -0.11108,-0.4126 q -0.0635,-0.30151 -0.0635,-0.50781 l -0.0476,-0.34912 -0.0635,-0.15869 q 0,-0.25391 -0.0952,-0.55542 l 0,-0.19043 q -0.11108,-0.36499 -0.17456,-0.92041 l -0.0476,-0.1587 -0.26977,-1.57104 q -0.11109,-0.34912 -0.15869,-0.85693 -0.0635,-0.34912 -0.0952,-0.52369 -0.0159,-0.19042 -0.0793,-0.38085 l -0.31739,-1.68213 0,-0.2063 q -0.0635,-0.0476 -0.0635,-0.19043 l -0.1587,-0.8728 -0.15869,-0.76172 q -0.0635,-0.30152 -0.0635,-0.50782 l -0.0476,-0.34912 -0.0476,-0.30151 q -0.0635,-0.30151 -0.12695,-0.47608 -0.0476,-0.19042 -0.0476,-0.44433 -0.0952,-0.30151 -0.0952,-0.50781 l -0.0635,-0.19043 -0.0476,-0.36499 -0.0635,-0.30152 -0.0476,-0.34912 q -0.11109,-0.4126 -0.11109,-0.61889 -0.11108,-0.34913 -0.15869,-0.90455 l -0.0635,-0.15869 -0.0952,-0.69824 -0.0635,-0.15869 -0.1587,-1.11084 -0.11108,-0.36499 0,-0.55542 q 0.33325,-0.0952 0.80933,-0.14282 l 0.92041,-0.15869 q 0.49194,-0.0476 0.84106,-0.12696 0.36499,-0.0793 0.90454,-0.12695 l 1.95191,-0.30151 0.38086,-0.0952 q 0.26977,0 0.38085,-0.0635 0.26978,0 0.58716,-0.0952 l 0.60303,-0.0476 0.38086,-0.0476 0.0476,1.50757 q 0.0635,0.31739 0.0635,0.71411 l 0.11109,2.88819 q 0.0952,0.50781 0.0476,1.26953 l 0.0476,0.2063 0.0635,2.17407 q 0.0476,0.25391 0.0476,0.6189 l 0.0635,0.2539 1.50757,-2.58667 q 0.0635,-0.0635 0.14282,-0.17456 0.0794,-0.12695 0.14283,-0.28564 l 0.36499,-0.66651 0.28564,-0.44433 0.92041,-1.47583 0.15869,-0.30152 0.80933,-1.36474 0.15869,-0.25391 0.8252,-1.31714 q 0.0476,-0.0635 0.11108,-0.2063 l 0.31738,-0.50781 q 0.15869,-0.2063 0.26978,-0.50781 l 0.60302,-0.92041 0.0476,-0.14282 z"
       style="font-style:normal;font-variant:normal;font-weight:normal;font-stretch:normal;font-size:32.5px;font-family:Grinched;-inkscape-font-specification:Grinched"
       id="path4251" />
    <path
       d="m 224.63562,189.84912 0.25391,0.0476 1.20605,0.6665 0.0793,0.0794 0.79345,0.44433 0.12696,0.0476 q 0.19043,0.12695 0.49194,0.26978 l 1.01563,0.57129 q 0.0476,0.0476 0.17456,0.0793 l 1.36474,0.79346 0.14282,0.0476 0.25391,0.17456 0,0.26977 q -0.12695,0.17456 -0.17456,0.44434 l -0.12695,0.30151 q -0.0952,0.14282 -0.14283,0.34912 l -0.0793,0.14282 -2.25342,5.60181 -0.0476,0.17456 -0.79345,1.98364 q -0.0317,0.12696 -0.17456,0.34913 l -0.0794,0.31738 -0.14282,0.30151 -0.22217,0.57129 -0.12695,0.31738 -0.52368,1.26954 q -0.0476,0.17456 -0.17457,0.39672 l -0.76171,1.9043 -0.0317,0.17456 -0.36499,0.84107 q -0.0794,0.12695 -0.12696,0.34912 l -0.0952,0.12695 -0.12695,0.39673 -0.12696,0.31738 -0.79345,1.93604 -0.0952,0.30151 -0.0793,0.14282 -0.53956,1.31714 -0.0317,0.17456 -0.58716,1.36475 q -0.2063,-0.0317 -0.52368,-0.17456 l -0.34912,-0.12696 -0.49195,-0.12695 q -0.12695,-0.0952 -0.34912,-0.14282 l -0.26977,-0.12695 -0.17456,-0.0476 -0.25391,-0.0794 q 0,-0.31738 0.12695,-0.6665 l 0,-0.12695 0.17456,-0.79346 q 0.0952,-0.49194 0.22217,-0.84107 l 0,-0.17456 q 0.12695,-0.39673 0.22217,-0.98388 l 0.17456,-0.79346 0.0793,-0.30151 0.19043,-0.88868 0.0317,-0.2539 0.17456,-0.79346 q 0.0952,-0.22217 0.0952,-0.39673 0.0952,-0.22217 0.12695,-0.57129 l 0.0476,-0.26977 0.0476,-0.12696 0.0793,-0.49194 q 0.0952,-0.22217 0.14282,-0.52368 l 0.26978,-1.2854 q 0.0794,-0.22217 0.12695,-0.57129 l 0.0476,-0.12695 0.0793,-0.49195 q 0.0952,-0.22216 0.14282,-0.49194 l 0.0317,-0.30151 0.31738,-1.2854 0,-0.17456 q 0.0476,-0.0317 0.0476,-0.17456 0.0793,-0.25391 0.12695,-0.6189 0.0476,-0.22217 0.0635,-0.30151 0.0159,-0.0952 0.15869,-0.53956 l 0,-0.17456 0.17456,-0.79345 0.0476,-0.22217 0.17456,-0.65064 q 0,-0.26977 0.12695,-0.57129 l 0.0476,-0.31738 0.0476,-0.0793 0,-0.17456 0.0317,-0.19043 0.0476,-0.2063 0.14282,-0.49195 q 0,-0.26977 0.12696,-0.57129 l 0.0476,-0.31738 0.0317,-0.0793 0,-0.17456 0.0476,-0.17456 q 0.0952,-0.26978 0.14282,-0.6189 0.0317,-0.22217 0.0476,-0.30151 0.0317,-0.0952 0.0793,-0.19043 l 0.0794,-0.34913 q 0,-0.31738 0.14282,-0.6665 l 0,-0.12695 q 0.17456,-0.6189 0.22217,-1.01563 l 0.17456,-0.71411 z m -7.53784,28.92944 q 0.17456,-1.93603 2.33276,-2.33276 2.15821,-0.0793 2.87232,2.12647 -0.14283,3.20556 -3.49121,2.68188 -1.71387,-0.52368 -1.71387,-2.47559 z"
       style="font-style:normal;font-variant:normal;font-weight:normal;font-stretch:normal;font-size:32.5px;font-family:Grinched;-inkscape-font-specification:Grinched"
       id="path4253" />
    <path
       d="m 235.23621,189.84912 0.2539,0.0476 1.20606,0.6665 0.0793,0.0794 0.79346,0.44433 0.12695,0.0476 q 0.19043,0.12695 0.49195,0.26978 l 1.01562,0.57129 q 0.0476,0.0476 0.17456,0.0793 l 1.36475,0.79346 0.14282,0.0476 0.25391,0.17456 0,0.26977 q -0.12696,0.17456 -0.17456,0.44434 l -0.12696,0.30151 q -0.0952,0.14282 -0.14282,0.34912 l -0.0794,0.14282 -2.25341,5.60181 -0.0476,0.17456 -0.79346,1.98364 q -0.0317,0.12696 -0.17456,0.34913 l -0.0793,0.31738 -0.14283,0.30151 -0.22216,0.57129 -0.12696,0.31738 -0.52368,1.26954 q -0.0476,0.17456 -0.17456,0.39672 l -0.76172,1.9043 -0.0317,0.17456 -0.36499,0.84107 q -0.0793,0.12695 -0.12695,0.34912 l -0.0952,0.12695 -0.12696,0.39673 -0.12695,0.31738 -0.79346,1.93604 -0.0952,0.30151 -0.0794,0.14282 -0.53955,1.31714 -0.0317,0.17456 -0.58716,1.36475 q -0.20629,-0.0317 -0.52368,-0.17456 l -0.34912,-0.12696 -0.49194,-0.12695 q -0.12696,-0.0952 -0.34912,-0.14282 l -0.26978,-0.12695 -0.17456,-0.0476 -0.25391,-0.0794 q 0,-0.31738 0.12696,-0.6665 l 0,-0.12695 0.17456,-0.79346 q 0.0952,-0.49194 0.22217,-0.84107 l 0,-0.17456 q 0.12695,-0.39673 0.22216,-0.98388 l 0.17456,-0.79346 0.0794,-0.30151 0.19043,-0.88868 0.0317,-0.2539 0.17456,-0.79346 q 0.0952,-0.22217 0.0952,-0.39673 0.0952,-0.22217 0.12696,-0.57129 l 0.0476,-0.26977 0.0476,-0.12696 0.0794,-0.49194 q 0.0952,-0.22217 0.14282,-0.52368 l 0.26978,-1.2854 q 0.0793,-0.22217 0.12695,-0.57129 l 0.0476,-0.12695 0.0793,-0.49195 q 0.0952,-0.22216 0.14282,-0.49194 l 0.0317,-0.30151 0.31738,-1.2854 0,-0.17456 q 0.0476,-0.0317 0.0476,-0.17456 0.0794,-0.25391 0.12696,-0.6189 0.0476,-0.22217 0.0635,-0.30151 0.0159,-0.0952 0.15869,-0.53956 l 0,-0.17456 0.17456,-0.79345 0.0476,-0.22217 0.17456,-0.65064 q 0,-0.26977 0.12696,-0.57129 l 0.0476,-0.31738 0.0476,-0.0793 0,-0.17456 0.0317,-0.19043 0.0476,-0.2063 0.14282,-0.49195 q 0,-0.26977 0.12695,-0.57129 l 0.0476,-0.31738 0.0317,-0.0793 0,-0.17456 0.0476,-0.17456 q 0.0952,-0.26978 0.14283,-0.6189 0.0317,-0.22217 0.0476,-0.30151 0.0317,-0.0952 0.0794,-0.19043 l 0.0794,-0.34913 q 0,-0.31738 0.14282,-0.6665 l 0,-0.12695 q 0.17456,-0.6189 0.22217,-1.01563 l 0.17456,-0.71411 z m -7.53785,28.92944 q 0.17456,-1.93603 2.33277,-2.33276 2.1582,-0.0793 2.87231,2.12647 -0.14282,3.20556 -3.49121,2.68188 -1.71387,-0.52368 -1.71387,-2.47559 z"
       style="font-style:normal;font-variant:normal;font-weight:normal;font-stretch:normal;font-size:32.5px;font-family:Grinched;-inkscape-font-specification:Grinched"
       id="path4255" />
  </g>
</svg>
